<?xml version="1.0" encoding="UTF-8"?>
<svg enable-background="new 0 0 106.6 96.8" version="1.1" viewBox="0 0 106.6 96.8" xml:space="preserve" xmlns="http://www.w3.org/2000/svg">
<style type="text/css">
	.st0{fill:#FFBE17;}
	.st1{fill:#FFFFFF;}
</style>
	<path class="st0" d="m78.1 39.5c2.7 2.3 10.6 0.1 8.1-4.4-2.7-4.1-8.1 4.4-8.1 4.4z"/>
	<path class="st0" d="m99.9 3.1c-4.9-0.8-2.3 8.9-2.3 8.9 3.6-0.4 7.3-7.7 2.3-8.9z"/>
	<path class="st0" d="m51 7.3c-2.3 2.7-0.1 10.6 4.4 8.1 4.1-2.6-4.4-8.1-4.4-8.1z"/>
	<path class="st0" d="m48.9 50.3c-5 3.8 4.4 8.1 4.4 8.1 2.2-2.7 0.1-10.6-4.4-8.1z"/>
	<path class="st0" d="m89 68c-5 3.8 4.4 8.1 4.4 8.1 2.2-2.7 0-10.6-4.4-8.1z"/>
	<path class="st0" d="m59 93.4c3.2 1.6 10.3-2.5 6.8-6.2-5-3.9-6.8 6.2-6.8 6.2z"/>
	<path class="st0" d="m19 49.6c5.1 3.7 6.5-6.5 6.5-6.5-3.3-1.4-10.2 3-6.5 6.5z"/>
	<path class="st0" d="M5,18.1c-3.7,5.1,6.5,6.5,6.5,6.5C13,21.3,8.6,14.4,5,18.1z"/>
	<path class="st0" d="m16 77.3c-3.7 5.1 6.5 6.5 6.5 6.5 1.4-3.2-3-10.1-6.5-6.5z"/>
</svg>
